<svg id="Layer_1" data-name="Layer 1" xmlns="http://www.w3.org/2000/svg" xmlns:xlink="http://www.w3.org/1999/xlink" viewBox="0 0 810 900"><defs><style>.cls-1{fill:#6a1b98;}.cls-2{fill:#aa46bb;}.cls-3{fill:url(#radial-gradient);}.cls-4{fill:url(#radial-gradient-2);}.cls-5{fill:url(#radial-gradient-3);}.cls-6{fill:#fff;}</style><radialGradient id="radial-gradient" cx="635.18" cy="308.98" r="711.12" gradientTransform="matrix(0.92, 0.38, -0.38, 0.92, 182.15, -217.87)" gradientUnits="userSpaceOnUse"><stop offset="0" stop-color="#ff408e"/><stop offset="1" stop-color="#7a1c7c"/></radialGradient><radialGradient id="radial-gradient-2" cx="177.42" cy="835.64" r="822.01" gradientTransform="matrix(0.92, 0.38, -0.38, 0.92, 182.15, -217.87)" gradientUnits="userSpaceOnUse"><stop offset="0" stop-color="#7a1c7c" stop-opacity="0.8"/><stop offset="0.21" stop-color="#7f1d7d" stop-opacity="0.77"/><stop offset="0.41" stop-color="#8f227f" stop-opacity="0.68"/><stop offset="0.6" stop-color="#a92982" stop-opacity="0.52"/><stop offset="0.8" stop-color="#cd3287" stop-opacity="0.3"/><stop offset="0.99" stop-color="#fb3f8d" stop-opacity="0.02"/><stop offset="1" stop-color="#ff408e" stop-opacity="0"/></radialGradient><radialGradient id="radial-gradient-3" cx="299.27" cy="164.44" r="333.78" gradientTransform="translate(-0.04 0.25)" gradientUnits="userSpaceOnUse"><stop offset="0" stop-color="#ff94c5" stop-opacity="0"/><stop offset="0.03" stop-color="#ff91c3" stop-opacity="0.04"/><stop offset="0.31" stop-color="#ff75b0" stop-opacity="0.37"/><stop offset="0.55" stop-color="#ff5ea2" stop-opacity="0.64"/><stop offset="0.76" stop-color="#ff4e97" stop-opacity="0.84"/><stop offset="0.91" stop-color="#ff4490" stop-opacity="0.96"/><stop offset="1" stop-color="#ff408e"/></radialGradient></defs><title>logo</title><path class="cls-1" d="M735,620.07V280.64l-89.28-89.29L735,102.07v-.32A448.11,448.11,0,0,0,450,0C201.47,0,0,201.47,0,450S201.47,900,450,900A448.1,448.1,0,0,0,734.79,798.42l-89.07-89.07Z"/><circle class="cls-2" cx="450" cy="450" r="360"/><path class="cls-3" d="M588.24,117.73C404.75,41.36,194.16,128.14,117.75,311.66S128.11,705.9,311.6,782.27s394.27-10.45,470.67-194S771.74,194.12,588.24,117.73Z"/><path class="cls-4" d="M521.66,462.47C414.41,536.64,278.73,538.65,172,479.09a277.5,277.5,0,0,0,48,128.64c87.58,126.62,261.2,158.3,387.78,70.74S766,417.24,678.45,290.61a283.41,283.41,0,0,0-22.2-28A329.71,329.71,0,0,1,521.66,462.47Z"/><path class="cls-5" d="M302,214.68a279.13,279.13,0,0,1,38.37-20.12l5,39.91a293.14,293.14,0,0,0-38.64,7.81ZM666.92,465.55h0l60.92-6.18c3.74-112.26-61.22-220.25-171.09-266A276.73,276.73,0,0,0,378,181.52l-1.26,50.64A290.33,290.33,0,0,1,666.92,465.55Z"/><path class="cls-6" d="M298,267c5.54-7,14.51-10.37,23.22-10.74,10.58-.44,21.46,2.72,29.43,9.88-2,3.43-3.33,7.35-6,10.36-2.78,2.11-5.81-.53-8.29-1.83-6.53-4.15-15.36-5.51-22.35-1.74-5.71,3-7.39,12.12-2.14,16.31,4.91,4.09,11.39,5.29,17.27,7.37,6.73,2.39,14,5,18.5,10.84,4.85,6,5.25,14.38,3.8,21.68a28,28,0,0,1-14,19.2c-7.27,4.2-16,4.77-24.15,3.9a44.8,44.8,0,0,1-25-12c2-3.06,3.58-6.36,5.83-9.23,1.56-2,4.6-1.9,6.51-.48,3.65,2.28,7.18,4.85,11.28,6.29,5.54,1.74,11.87,1.86,17.18-.69,7.05-3.4,9.07-14.83,2.49-19.67-5.92-4.48-13.6-5.18-20.35-7.84-7-2.36-14-6.63-16.91-13.73C290.58,285.81,291.59,274.6,298,267Z"/><path class="cls-6" d="M231.34,257.24c6,0,12.06,0,18.1.06,1.49,4,3.1,8,4.67,12Q268.53,306.18,283,343c1.06,2.8,2.51,5.52,2.87,8.54-4.91-.14-9.84.2-14.74-.14-2.42-.2-4-2.41-4.74-4.5-2.3-6.1-4.45-12.25-6.7-18.35-12.93-.07-25.85,0-38.78,0-2.19,6-4.51,12-6.54,18.12-.86,2.13-2.29,4.4-4.78,4.73-3.56.38-7.14.08-10.7.15h-4.66c1.39-3.6,2.81-7.18,4.21-10.78,11-27.8,21.9-55.65,32.87-83.47m-5.7,58.52,29.42,0c-4.86-13.86-10.55-27.44-14.75-41.51C236.2,288.33,230.44,301.88,225.64,315.76Z"/><path class="cls-6" d="M367,257.24c10.29,0,20.58,0,30.87,0,9.89.13,20.61,1.89,28.12,8.87,7.68,6.91,9.65,18.25,7.83,28a27.38,27.38,0,0,1-11.59,18.11c-11.07,7.34-24.85,6.23-37.48,6.24,0,11,0,22,0,33H367q-.09-47.13,0-94.27M384.75,271q0,16.74,0,33.49c7.65-.42,15.74,1.27,23-1.79,11.76-4.86,12.2-24.91.23-29.77C400.64,269.92,392.48,271.33,384.75,271Z"/><path class="cls-6" d="M466.25,257.26c4.09,0,8.18-.12,12.27.16,4.67,3.69,7.58,9.07,11.45,13.52q20.2,25.82,40.41,51.63c-.83-16.72-.17-33.47-.4-50.2,0-5,0-10.08,0-15.13h15.75c0,8.52,0,17,0,25.55q0,34.32,0,68.65c-4.19-.13-8.53.63-12.61-.52-3.93-2.47-6-6.93-9.09-10.31q-21.18-27.14-42.43-54.22c.72,15.4.17,30.83.4,46.24-.05,6.29,0,12.57,0,18.86q-7.87,0-15.76,0Q466.27,304.38,466.25,257.26Z"/><path class="cls-6" d="M566.51,257.27c10.78,0,21.57,0,32.36,0H626q0,7.13,0,14.26c-13.9,0-27.8,0-41.69,0,0,8.58,0,17.15,0,25.73q16.37,0,32.72,0c0,4.59,0,9.17,0,13.76-10.92,0-21.83,0-32.75,0q0,13.13,0,26.23c13.91,0,27.83,0,41.74,0q0,7.13,0,14.26h-9.14q-19.14,0-38.28,0l-12,0q0-27,0-53.93C566.54,284.13,566.48,270.7,566.51,257.27Z"/><path class="cls-6" d="M632.52,257.25c6,0,11.9,0,17.86,0H707c0,4.91,0,9.83,0,14.75h-8.06c-6.73,0-13.46,0-20.18,0q0,10.33,0,20.67,0,29.4,0,58.81c-5.91,0-11.83,0-17.74,0q0-39.75,0-79.5c-9.5,0-19,0-28.5,0C632.49,267.08,632.48,262.16,632.52,257.25Z"/><path class="cls-6" d="M436.3,333.46c6.1-2.85,14.12,1.75,14.17,8.63.71,7.51-8.35,13-14.79,9.29C428.43,348.12,428.92,336.27,436.3,333.46Z"/><path class="cls-6" d="M297.46,412.39a46,46,0,0,1,25.62-10.14,47.08,47.08,0,0,1,36.71,12l-.64.94a100.36,100.36,0,0,1-5.93,8.12,4,4,0,0,1-5.27.74c-3.53-2-6.83-4.5-10.8-5.53-8.36-2.4-18-1.68-25.26,3.34-6.71,4.48-10.56,12.24-11.88,20-1.66,9.85-.61,20.58,4.85,29.14A26.34,26.34,0,0,0,325,483.18c7.28.54,15.21-.32,21.07-5.08,2-1.36,4-3.94,6.7-2.91,3.16,2.43,5.52,5.71,8.27,8.56-5.18,6-11.88,10.84-19.63,12.85a57.88,57.88,0,0,1-26.66.57,42.6,42.6,0,0,1-21-11.88c-9.16-9.6-12.93-23.27-12.54-36.3C281.22,435.27,286.77,421.25,297.46,412.39Z"/><path class="cls-6" d="M392.1,406.2c17.31-7.35,39-5.06,53.36,7.57a47.79,47.79,0,0,1,13.72,23.71c3.12,14.5,1.09,30.65-7.9,42.77-7.51,10.34-19.72,16.67-32.34,17.9-13.94,1.57-28.83-2.18-39.23-11.88-14.07-13.07-17.83-34.59-12.21-52.51a44.36,44.36,0,0,1,24.6-27.56m11.25,12.33a26.24,26.24,0,0,0-16.25,13.52c-4.37,8.9-4.82,19.36-2.72,28.93,1.83,8.34,7.28,16,15.2,19.55,11.75,5.16,27.4,3.19,35.73-7.17,6.68-8.48,8.07-20.05,6.53-30.46-1.21-8-5-16.12-11.91-20.76C422.26,416.91,412.16,416.1,403.35,418.53Z"/><path class="cls-6" d="M475.76,403.25c10.76,0,21.52,0,32.29,0,9.36.33,19.54,2.44,26.3,9.42s7.83,17.93,5,26.89c-2.74,8.64-10.38,14.91-18.86,17.54,1.26,1,2.53,2.06,3.72,3.2,8.58,12.25,16.86,24.74,25.28,37.12q-4.38.09-8.73.1c-4.61-.27-10.83,1.23-13.8-3.38-5.41-8.09-10.66-16.28-16-24.39-2-2.81-3.41-6.26-6.28-8.32-3.53-1.32-7.45-.49-11.14-.66q0,9.32,0,18.63c0,6,0,12.06,0,18.09-5.74,0-11.49-.05-17.23.07l-.47-.66q-.09-46.81,0-93.65M493.51,417c0,10.23,0,20.46,0,30.69,7.72-.23,16.24,1.48,23.18-2.88,8.53-5.14,9.5-19.77.67-25.07C510.1,415.56,501.43,417.4,493.51,417Z"/><path class="cls-6" d="M559.09,403.44c9.19-.43,18.41-.07,27.62-.2,10.68,0,21.36,0,32,0,0,4.66.09,9.33,0,14H577c0,8.58,0,17.16,0,25.75h33q0,6.87,0,13.76-16.5,0-33,0,0,13.25,0,26.5c13.91,0,27.83,0,41.74,0q0,7.11,0,14.23h-8.91q-25.29,0-50.57,0,0-32.36,0-64.71C559.16,423,559.44,413.21,559.09,403.44Z"/><path class="cls-6" d="M636.17,562.13c7.56-9.19,19.36-14.18,31.1-14.8,15.21-.83,31.65,3.09,42.67,14.16-3.07,4.52-4.62,10-8.33,14.11-3.89,3-8.17-.73-11.6-2.6-9-5.67-21-7.62-30.79-2.78-7,3.28-10.22,12.57-6.88,19.48,2.62,4.78,7.78,7.36,12.64,9.35,8.52,3.23,17.43,5.39,25.75,9.18,8,3.37,15.31,9.17,18.85,17.3,4,9.75,3.22,21-.34,30.77C704.75,668.64,693.55,677.76,681,681c-20.5,5.22-43.25-1-58.65-15.39,2.47-4.24,4.86-8.55,7.68-12.58a6.48,6.48,0,0,1,8.12-2.07c4.08,2.15,7.62,5.21,11.8,7.21a34.49,34.49,0,0,0,28.46,2.15c10.68-4,14.46-20.57,5.37-28-6.66-5.52-15.46-6.87-23.43-9.53-8.89-2.89-18.28-6.15-24.58-13.42a31.92,31.92,0,0,1-7.6-17.91C626.73,581.08,629.43,570.15,636.17,562.13Z"/><path class="cls-6" d="M195.67,548.75c5.15.09,10.29-.15,15.43.06,2.41,0,4.38,1.52,5.77,3.33q34.69,44.29,69.39,88.59c-.19-2.9-.41-5.78-.49-8.68-.18-27.78.22-55.57-.2-83.35,7.39.11,14.78,0,22.18.06V681.23c-5,0-10,0-14.95,0-6.28-1.17-8.83-7.64-12.77-11.87C259.21,642.6,238.12,616,217.38,589.2c.43,5.44.39,10.91.38,16.38q0,26.1,0,52.22v23.45c-7.38,0-14.75,0-22.13,0C195.89,637.11,195.75,592.92,195.67,548.75Z"/><path class="cls-6" d="M336.72,548.63c27.92.31,55.85,0,83.77.12,0,6.58,0,13.16,0,19.75-19.58,0-39.16,0-58.74,0q0,18.25,0,36.5,23.25,0,46.49,0c0,6.46-.05,12.93,0,19.39-15.5-.33-31-.06-46.52-.15q0,18.5,0,37c11.83,0,23.66,0,35.49,0q11.63,0,23.25,0c0,6.67.08,13.33,0,20q-41.85,0-83.69,0Q336.7,614.94,336.72,548.63Z"/><path class="cls-6" d="M428.89,548.76c7.79,0,15.58-.17,23.36.09a8.09,8.09,0,0,1,5.92,6.14q8.54,29.85,17,59.73c3,10.46,6.3,20.85,8,31.61,1.46-8.29,4.55-16.15,7-24.15,6.75-20.44,13.4-40.92,20.18-61.35,1.4-4.17,2.18-9.59,6.82-11.45,3.8-1.11,7.86-.63,11.78-.57s6.72,3.06,7.7,6.5q10.26,31.23,20.45,62.47c2.88,9.33,6.53,18.46,8.42,28.08.87-4.76,1.78-9.51,3.09-14.16,5.95-21.06,12-42.09,17.93-63.15,1.5-4.92,2.7-9.92,4.3-14.8,1-3.38,4.75-5.09,8.08-5,6.47-.06,13,0,19.43,0-2.59,8.61-5.35,17.16-8,25.76q-9.16,29.6-18.38,59.18-7.38,23.79-14.78,47.56c-7.5.07-15-.17-22.48.14-7.07-22.34-14.26-44.64-21.38-67-3.16-10.31-6.85-20.47-9.62-30.89-7.42,24.65-15.76,49-23.53,73.57-2.75,8-4.89,16.22-8,24.07-7.44.17-14.89,0-22.32.07Q449.35,615,428.89,548.76Z"/></svg>